<?xml version="1.0" standalone="no"?><!DOCTYPE svg PUBLIC "-//W3C//DTD SVG 1.1//EN" "http://www.w3.org/Graphics/SVG/1.1/DTD/svg11.dtd"><svg class="icon" width="200px" height="200.00px" viewBox="0 0 1024 1024" version="1.1" xmlns="http://www.w3.org/2000/svg"><path fill="#cdcdcd" d="M320 320c0-106.048 85.952-192 192-192 106.048 0 192 85.952 192 192 0 22.592-4.608 43.904-11.776 64L832 384 832 320c0-176.704-143.296-320-320-320C335.232 0 192 143.232 192 320l0 64c0 0 58.176 0 139.776 0C324.608 363.84 320 342.528 320 320zM832 384 192 384C121.28 384 64 441.344 64 512l0 384c0 70.72 57.28 128 128 128l640 0c70.72 0 128-57.344 128-128L960 512C960 441.344 902.72 384 832 384zM576 750.208 576 832c0 35.328-28.672 64-64 64-35.328 0-64-28.672-64-64l0-81.728C409.92 728.064 384 687.232 384 640c0-70.72 57.28-128 128-128s128 57.28 128 128C640 687.232 614.08 728.064 576 750.208z" /></svg>