<?xml version="1.0" standalone="no"?><!DOCTYPE svg PUBLIC "-//W3C//DTD SVG 1.1//EN" "http://www.w3.org/Graphics/SVG/1.1/DTD/svg11.dtd"><svg class="icon" width="200px" height="200.00px" viewBox="0 0 1024 1024" version="1.1" xmlns="http://www.w3.org/2000/svg"><path fill="#cdcdcd" d="M300.7 380.6c0 20.2 15.5 36.6 34.6 36.6l0.6 0c7.2 96.8 83.4 193.6 176.5 193.6 93.1 0 169.3-96.8 176.5-193.6l0.6 0c19.1 0 34.6-16.4 34.6-36.6 0-15-8.4-27.8-20.5-33.5 7-21.8 10.8-45 10.8-69.2 0-118.3-90.4-214.3-202-214.3-111.6 0-202 96-202 214.3 0 24.2 3.8 47.5 10.8 69.2C309.1 352.8 300.7 365.6 300.7 380.6L300.7 380.6 300.7 380.6zM954.6 834.7C872.2 754.6 771.4 698.1 663.1 671.1c-2.7-1.5-5.8-2.3-9-2.3l-9.8 0c-3.1 0-6.1 0.8-8.9 2.3-32.7 17.5-77.6 27.6-123.1 27.6-45.5 0-90.3-10.1-123.1-27.6-2.7-1.4-5.8-2.2-8.9-2.2l-7.2 0c-1.5 0-2.9 0.2-4.3 0.5C257.7 695.6 154.4 752.8 70 834.7c-3.7 3.5-5.7 8.4-5.7 13.5l0 67.3c0 10.3 8.4 18.8 18.8 18.8l858.3 0c10.4 0 18.8-8.4 18.8-18.8l0-67.3C960.3 843.1 958.3 838.2 954.6 834.7L954.6 834.7 954.6 834.7zM954.6 834.7" /></svg>